<?xml version="1.0" encoding="UTF-8" standalone="no"?>
<!-- Created with Inkscape (http://www.inkscape.org/) -->

<svg
   width="412"
   height="412"
   viewBox="0 0 412 412"
   version="1.1"
   id="svg1"
   xml:space="preserve"
   xmlns:xlink="http://www.w3.org/1999/xlink"
   xmlns="http://www.w3.org/2000/svg"
   xmlns:svg="http://www.w3.org/2000/svg"><defs
     id="defs1"><linearGradient
       id="linearGradient6"><stop
         style="stop-color:#201e1e;stop-opacity:1;"
         offset="0.61406249"
         id="stop7" /><stop
         style="stop-color:#2f2f2f;stop-opacity:1;"
         offset="1"
         id="stop8" /></linearGradient><linearGradient
       xlink:href="#linearGradient6"
       id="linearGradient8"
       x1="401.66412"
       y1="401.66403"
       x2="110.33605"
       y2="110.33594"
       gradientUnits="userSpaceOnUse" /></defs><g
     id="layer1"
     style="display:inline"
     transform="translate(-50,-50)"><rect
       style="display:inline;fill:url(#linearGradient8);fill-opacity:1;stroke:#000000;stroke-width:0;stroke-linecap:round;stroke-linejoin:round;stroke-dasharray:none;stroke-opacity:1"
       id="rect1-8"
       width="412"
       height="412"
       x="50"
       y="50"
       rx="92.5"
       ry="92.5" /><path
       id="path125"
       style="display:inline;fill:#131313;fill-opacity:0.103865;stroke:#000000;stroke-width:0;stroke-linecap:round;stroke-linejoin:round;stroke-dasharray:none"
       d="m 385.44509,358.22055 c 1e-5,15.40386 -94.22691,43.74507 -146.99792,43.74507 -52.77099,0 -95.55033,-17.50003 -95.55032,-32.90388 1e-5,-15.40385 48.93598,-66.1711 101.70696,-66.1711 52.77099,0 140.84127,39.92606 140.84128,55.32991 z" /><path
       d="m 342.34319,184.30444 c -15.90066,-12.55048 -55.68444,-20.83591 -100.06201,-20.83907 -44.56907,0.023 -84.82237,8.53067 -100.52725,21.16576 3.35659,2.79696 8.18487,5.79191 13.61535,8.21875 20.09352,-8.42483 52.43497,-13.914 86.9119,-13.93372 34.39984,0.003 66.70594,4.96925 86.85733,13.35297 5.44201,-2.45742 9.88074,-5.13471 13.20468,-7.96469 z"
       style="display:inline;fill:#712f02;fill-opacity:1;stroke:#000000;stroke-width:0;stroke-linecap:round;stroke-linejoin:round;stroke-dasharray:none"
       id="path97" /><ellipse
       style="display:inline;fill:#712f02;fill-opacity:1;stroke:none;stroke-width:0.890756;stroke-linecap:round;stroke-linejoin:bevel;stroke-dasharray:none;stroke-opacity:1;paint-order:normal"
       id="path13"
       cx="244.83804"
       cy="192.59676"
       rx="101.5644"
       ry="27.056652" /><ellipse
       style="display:inline;fill:#92450c;fill-opacity:1;stroke:none;stroke-width:0.677901;stroke-linecap:round;stroke-linejoin:bevel;stroke-dasharray:none;stroke-opacity:1;paint-order:normal"
       id="path13-8"
       cx="245.51302"
       cy="192.17091"
       rx="86.084419"
       ry="18.488712" /><ellipse
       style="display:inline;fill:#753103;fill-opacity:1;stroke:none;stroke-width:0.560858;stroke-linecap:round;stroke-linejoin:bevel;stroke-dasharray:none;stroke-opacity:1;paint-order:normal"
       id="path13-8-5"
       cx="254.53665"
       cy="195.19604"
       rx="70.383636"
       ry="15.478638" /><path
       d="m 242.06992,136.82464 c -59.30894,9e-5 -107.65732,15.66042 -107.65911,34.97875 0.0427,4.3453 2.83924,8.78406 7.72302,12.82774 15.70488,-12.63509 55.57828,-21.14287 100.14735,-21.16576 44.37757,0.003 84.98449,9.09313 100.88511,21.64362 4.69746,-3.99038 6.28707,-9.03191 6.2955,-13.3056 -0.002,-19.31851 -48.08241,-34.97892 -107.39187,-34.97875 z"
       style="display:inline;fill:#dcc6b6;fill-opacity:1;stroke:#000000;stroke-width:0;stroke-linecap:round;stroke-linejoin:round;stroke-dasharray:none"
       id="path96" /><path
       id="path124"
       style="display:inline;fill:#fff8ec;fill-opacity:0.878019;stroke:#000000;stroke-width:0;stroke-linecap:round;stroke-linejoin:round;stroke-dasharray:none"
       d="m 385.06881,188.22162 c -7.00317,-0.0399 -13.674,2.17625 -20.19737,4.62826 -0.1018,7.93202 3.26295,40.96997 -0.34419,57.85048 -2.44937,10.66161 -2.52318,-29.75919 9.6272,-35.81433 42.76789,-13.20578 40.19976,78.84675 -13.41765,83.98477 -4.84608,-4.19983 1.90587,-25.68925 2.37723,-29.35421 4.20825,-37.53933 -37.56391,71.94056 -42.0427,80.8887 4.78571,1.2688 22.29713,-26.82703 27.16345,-26.63333 50.44254,-1.88818 86.76498,-54.13941 86.36485,-82.8526 -0.0504,-15.52126 -5.23969,-53.63862 -49.53082,-52.69774 z" /><path
       d="m 242.28118,129.33851 c -16.54456,0.006 -112.04268,1.75909 -121.06386,41.20409 -19.98271,69.77756 6.90655,142.5372 49.9043,196.25581 1.13945,1.25413 2.29152,2.47901 3.45576,3.67419 11.89729,9.77759 38.38978,16.08776 67.65476,16.11449 29.40784,-0.0229 56.0086,-6.3894 67.83238,-16.23599 0.94317,-0.97411 1.87833,-1.96784 2.80517,-2.98083 C 358.15586,313.8922 380.65015,239.96906 363.45718,169.9734 353.59973,130.85135 257.07932,129.33955 242.28,129.33822 Z m -0.21119,7.48613 c 59.30947,-1.7e-4 107.3901,15.66024 107.39188,34.97875 6.9e-4,19.31908 -48.08065,34.98037 -107.39188,34.9802 -59.31068,-8e-5 -107.39116,-15.6613 -107.39048,-34.9802 0.002,-19.31833 48.08155,-34.97866 107.39048,-34.97875 z"
       style="display:inline;fill:#fff8ec;fill-opacity:1;stroke:#000000;stroke-width:0;stroke-linecap:round;stroke-linejoin:round;stroke-dasharray:none"
       id="path94" /><path
       id="text13"
       style="font-weight:bold;font-size:127.912px;line-height:149.458px;font-family:'CMU Serif';-inkscape-font-specification:'CMU Serif Bold';letter-spacing:-1.57579px;word-spacing:0px;display:inline;fill:#1d1511;fill-opacity:0.792271;stroke:#000000;stroke-width:0;stroke-dasharray:none;stroke-opacity:0.707729"
       d="m 257.58628,227.16752 v 5.5729 h 8.7453 l 19.79727,36.51425 -18.01298,31.5222 c -0.40609,0.69664 -0.81332,1.17963 -1.21943,1.45052 -0.37709,0.23221 -1.24703,0.42605 -2.61035,0.58086 -1.79845,0.23221 -3.61043,0.3485 -5.43788,0.3485 h -2.56789 v 5.57291 c 1.38274,-0.12872 3.32702,-0.21265 5.6188,-0.27003 -0.14456,1.06943 -0.28811,2.09296 -0.43268,2.97168 -0.33942,2.06296 -0.83479,4.24187 -1.48535,6.53837 -0.62226,2.25756 -1.41425,4.08843 -2.37593,5.4897 -0.96169,1.40123 -2.13546,2.72453 -3.5214,3.9701 -1.38596,1.20662 -3.0835,2.08138 -5.09173,2.62632 -2.00821,0.50601 -4.31315,0.7598 -6.91535,0.7598 h -13.19506 v -33.74666 h 4.79436 c 3.87501,0 6.37873,1.08866 7.51012,3.26837 1.13139,2.14083 1.6962,5.72279 1.6962,10.74394 h 4.07368 v -33.63048 h -4.07368 c 0,5.02114 -0.56481,8.62227 -1.6962,10.802 -1.13139,2.14081 -3.63511,3.2103 -7.51012,3.2103 h -4.79436 v -30.71059 h 13.19506 c 2.71533,0 5.06287,0.35115 7.0428,1.05178 1.97995,0.70064 3.57809,1.65359 4.79433,2.86024 1.21626,1.20663 2.22122,2.84119 3.01319,4.90416 0.82026,2.06295 1.41346,4.1652 1.78117,6.30598 0.39598,2.10188 0.73516,4.78682 1.01802,8.05639 h 4.07369 l -2.6733,-28.84249 h -43.77055 l -1.73868,-26.58667 h -59.95672 l -1.87083,28.61959 h 4.17595 c 0.17404,-3.3283 0.36339,-5.8821 0.56645,-7.66233 0.23205,-1.78027 0.63772,-3.8123 1.21787,-6.09567 0.60914,-2.32207 1.37846,-4.02461 2.30668,-5.10821 0.95726,-1.12236 2.30493,-2.08992 4.04537,-2.90265 1.76945,-0.85141 3.90151,-1.27783 6.39613,-1.27783 h 6.87601 v 69.08198 h -13.66237 v 5.57291 c 3.21983,-0.23223 9.87587,-0.34852 19.97038,-0.34852 10.09451,0 16.75214,0.11629 19.97194,0.34852 v -5.57291 h -13.6183 v -69.08198 h 6.74385 c 2.49461,0 4.59658,0.40703 6.30801,1.21977 1.74042,0.77402 3.08969,1.72218 4.04694,2.84452 0.95722,1.08363 1.74003,2.80554 2.34917,5.16633 0.63816,2.32205 1.04539,4.37347 1.21943,6.15374 0.12786,1.30791 0.28768,3.48592 0.44687,5.62941 h -5.99175 v 5.66394 h 9.37627 v 70.06312 h -9.37627 v 5.60431 h 55.411 l 3.44589,-28.01209 c 0.77259,-0.006 1.34373,-0.0267 2.1871,-0.0267 6.8747,0 11.38522,0.11629 13.53176,0.34852 v -5.57291 c -3.36482,0 -6.0919,-0.44581 -8.18042,-1.33594 0.058,-0.0774 0.17526,-0.28902 0.34932,-0.63735 0.17404,-0.34829 0.2897,-0.56151 0.34773,-0.63891 l 14.70713,-26.06546 15.53321,28.67766 h -7.39685 v 5.57291 c 2.40762,-0.23223 7.77302,-0.34852 16.09809,-0.34852 7.54187,0 12.35741,0.11629 14.44593,0.34852 v -5.57291 h -8.74529 l -22.53826,-41.62249 14.96677,-26.29782 c 0.49312,-0.85141 0.92888,-1.37473 1.30598,-1.56826 0.40609,-0.23219 1.37665,-0.42445 2.91403,-0.57925 1.39235,-0.23221 3.10372,-0.34851 5.13422,-0.34851 h 2.61194 v -5.5729 c -2.52362,0.23221 -6.51282,0.3485 -11.96617,0.3485 -6.87469,0 -11.38524,-0.11629 -13.53175,-0.3485 v 5.5729 c 3.36482,0 6.09189,0.44424 8.18041,1.33436 -0.058,0.0774 -0.1737,0.2906 -0.34773,0.63892 -0.17405,0.3483 -0.29129,0.56152 -0.34929,0.63891 L 293.5257,256.19367 280.77752,232.7404 h 7.39684 v -5.5729 c -2.43662,0.23221 -7.81708,0.3485 -16.14213,0.3485 -7.54187,0 -12.35744,-0.11629 -14.44595,-0.3485 z"
       transform="translate(-2.3521728,8.6246336)" /><path
       id="path1"
       style="display:inline;fill:#fbfbfb;fill-opacity:0.309179;stroke:#000000;stroke-width:0;stroke-linecap:round;stroke-linejoin:round;stroke-dasharray:none"
       d="m 232.06729,68.105836 c 14.4498,70.352014 -33.53756,61.798524 6.00273,127.332114 -5.80251,-43.65697 44.0951,-71.65433 -6.00273,-127.332114 z M 211.92227,90.15882 c -5.93204,39.38329 -43.12971,42.26504 -12.5814,87.78808 -10.41015,-56.47205 34.01169,-30.35005 12.5814,-87.78808 z m 56.89791,7.800489 c 7.85568,43.194831 -25.74574,51.315091 14.39402,89.215051 -12.80802,-45.03744 34.01222,-19.86599 -14.39402,-89.215051 z" /><path
       style="display:inline;fill:#8f8d7a;fill-opacity:0.224832;stroke:#000000;stroke-linecap:round;stroke-linejoin:round;stroke-opacity:0"
       d="m 348.23478,323.77196 c 2.42249,-2.05406 30.85891,-28.30181 13.6896,-24.70446 -5.12892,0.69094 10.17916,-62.23121 8.4852,-77.0161 -13.60155,61.04119 -40.09469,123.71866 -92.9256,148.41352 -13.88985,2.59119 -43.66509,11.86952 -61.02008,14.33037 115.0314,11.00332 102.34009,-36.06853 131.77088,-61.02333 z"
       id="path20" /></g></svg>
