<?xml version="1.0" encoding="UTF-8" standalone="no"?>
<!-- Created with Inkscape (http://www.inkscape.org/) -->

<svg
   width="512"
   height="512"
   viewBox="0 0 512 512"
   version="1.1"
   id="svg1"
   xml:space="preserve"
   inkscape:export-filename="../Desktop/texpresso_logo_v3.png"
   inkscape:export-xdpi="96"
   inkscape:export-ydpi="96"
   inkscape:version="1.4 (e7c3feb1, 2024-10-09)"
   sodipodi:docname="texpresso_logo_v3.svg"
   xmlns:inkscape="http://www.inkscape.org/namespaces/inkscape"
   xmlns:sodipodi="http://sodipodi.sourceforge.net/DTD/sodipodi-0.dtd"
   xmlns="http://www.w3.org/2000/svg"
   xmlns:svg="http://www.w3.org/2000/svg"><sodipodi:namedview
     id="namedview1"
     pagecolor="#505050"
     bordercolor="#eeeeee"
     borderopacity="1"
     inkscape:showpageshadow="0"
     inkscape:pageopacity="0"
     inkscape:pagecheckerboard="0"
     inkscape:deskcolor="#d1d1d1"
     inkscape:document-units="mm"
     showgrid="false"
     showguides="true"
     inkscape:current-layer="g21"><inkscape:grid
       id="grid1"
       units="mm"
       originx="0"
       originy="0"
       spacingx="0.26458333"
       spacingy="0.26458334"
       empcolor="#0099e5"
       empopacity="0.30196078"
       color="#0099e5"
       opacity="0.14901961"
       empspacing="5"
       enabled="true"
       visible="false" /><inkscape:page
       x="0"
       y="0"
       width="512"
       height="512"
       id="page2"
       margin="0"
       bleed="0" /></sodipodi:namedview><defs
     id="defs1"><inkscape:path-effect
       effect="fillet_chamfer"
       id="path-effect41"
       is_visible="true"
       lpeversion="1"
       nodesatellites_param="F,0,1,1,0,36.469029,0,1 @ F,0,1,1,0,36.469029,0,1 @ F,0,0,1,0,36.469029,0,1 @ F,0,1,1,0,36.469029,0,1"
       radius="0"
       unit="px"
       method="auto"
       mode="F"
       chamfer_steps="1"
       flexible="false"
       use_knot_distance="true"
       apply_no_radius="true"
       apply_with_radius="true"
       only_selected="false"
       hide_knots="false" /></defs><path
     id="rect40"
     style="display:inline;fill:#377f7e;stroke:#fef9ec;stroke-width:5.03996;stroke-linecap:round;stroke-linejoin:round;stroke-dasharray:none;stroke-opacity:1"
     d="M 62.438698,41.306374 H 150.2162 a 36.469029,36.469029 45 0 1 36.46903,36.469029 V 167.319 A 36.469029,36.469029 135 0 1 150.2162,203.78803 H 62.438698 A 36.469029,36.469029 45 0 1 25.969669,167.319 V 77.775403 A 36.469029,36.469029 135 0 1 62.438698,41.306374 Z"
     inkscape:path-effect="#path-effect41"
     inkscape:original-d="M 25.969669,41.306374 H 186.68523 V 203.78803 H 25.969669 Z"
     transform="matrix(3.0853421,0,0,3.0600134,-72.056556,-118.99608)"
     sodipodi:nodetypes="ccccc"
     inkscape:label="background" /><g
     inkscape:groupmode="layer"
     id="g21"
     inkscape:label="texpresso"
     style="display:inline;stroke-width:0;stroke-dasharray:none"><path
       id="path125"
       style="display:inline;fill:#131313;fill-opacity:0.223529;stroke:#000000;stroke-linecap:round;stroke-linejoin:round"
       inkscape:label="shadow"
       d="m 352.80453,402.90524 a 118.6059,34.701122 0 0 1 -118.60591,34.70113 118.6059,34.701122 0 0 1 -118.6059,-34.70113 118.6059,34.701122 0 0 1 118.6059,-34.70112 118.6059,34.701122 0 0 1 118.60591,34.70112 z" /><path
       id="path124"
       style="display:inline;stroke-width:0;stroke-dasharray:none;fill:#fff8ec;fill-opacity:1;stroke:#000000;stroke-linecap:round;stroke-linejoin:round"
       d="m 416.19894,171.67403 c -8.69298,-0.0495 -16.97344,2.70762 -25.07084,5.75832 -0.12636,9.86872 4.05028,50.97332 -0.42724,71.97542 -3.04039,13.26478 -3.13201,-37.02529 11.95017,-44.55886 53.08747,-16.43014 49.89966,98.09818 -16.65522,104.49072 -6.01541,-5.22527 2.36573,-31.96161 2.95083,-36.52142 5.22367,-46.70503 -46.62779,89.50577 -52.18729,100.63872 5.94047,1.57858 27.67725,-33.37719 33.71778,-33.13621 62.61395,-2.3492 107.70073,-67.35823 107.20405,-103.08212 -0.0625,-19.31096 -6.504,-66.73515 -61.48224,-65.56457 z"
       sodipodi:nodetypes="cccccccccc"
       inkscape:label="handle" /><path
       d="m 347.63762,176.87663 c -25.01376,-10.4307 -65.97962,-16.77674 -108.6799,-16.78008 -42.79593,0.0249 -82.95601,6.85396 -107.89794,17.3358 25.03584,11.24922 65.04426,17.31273 107.63571,17.33581 42.81857,-0.004 83.89063,-6.55449 108.94213,-17.89153 z"
       style="display:inline;fill:#412519;fill-opacity:1;stroke:#000000;stroke-width:0;stroke-linecap:round;stroke-linejoin:round;stroke-dasharray:none"
       id="path98"
       inkscape:label="coffee_inner"
       sodipodi:nodetypes="ccccc" /><path
       d="m 363.16395,166.80045 c -19.73735,-15.61485 -69.12067,-25.92327 -124.20623,-25.9272 -55.32323,0.0286 -105.28935,10.61353 -124.7837,26.33365 4.16651,3.47988 10.15983,7.20606 16.90063,10.22545 24.94194,-10.48184 65.08714,-17.31127 107.88307,-17.3358 42.70028,0.004 82.8016,6.18256 107.81536,16.61325 6.75514,-3.05742 12.2649,-6.38842 16.39087,-9.90935 z"
       style="display:inline;fill:#311d16;fill-opacity:1;stroke:#000000;stroke-width:0;stroke-linecap:round;stroke-linejoin:round;stroke-dasharray:none"
       id="path97"
       inkscape:label="coffee_outer"
       sodipodi:nodetypes="ccccccc" /><path
       d="m 238.69549,107.72784 c -73.61973,1.1e-4 -133.63421,19.4841 -133.63643,43.51926 0.053,5.40626 3.52433,10.92881 9.58652,15.9598 19.49435,-15.72012 68.98891,-26.30518 124.31214,-26.33365 55.08556,0.004 105.49061,11.31333 125.22794,26.92818 5.83092,-4.96468 7.80409,-11.23717 7.81457,-16.55433 -0.002,-24.03538 -59.68434,-43.51947 -133.30474,-43.51926 z"
       style="display:inline;fill:#dcc6b6;fill-opacity:1;stroke:#000000;stroke-width:0;stroke-linecap:round;stroke-linejoin:round;stroke-dasharray:none"
       id="path96"
       inkscape:label="cup_inner"
       sodipodi:nodetypes="scccccs" /><path
       d="m 238.95772,98.413883 c -20.53663,0.0069 -139.077697,2.188587 -150.275633,51.264587 -24.8044,86.81464 8.573036,177.33948 61.945823,244.17415 1.41439,1.56035 2.84445,3.08431 4.28961,4.57129 14.76801,12.16492 47.65295,20.01581 83.97934,20.04905 36.50372,-0.0285 69.52304,-7.94943 84.19982,-20.20021 1.17075,-1.21197 2.33155,-2.4483 3.48204,-3.70863 C 382.7921,328.0287 410.7141,236.05627 389.37258,148.9703 377.13661,100.2961 257.32655,98.415165 238.95625,98.413525 Z m -0.26214,9.313957 c 73.62042,-2.1e-4 133.30253,19.48388 133.30475,43.51926 8.4e-4,24.03608 -59.68215,43.52127 -133.30475,43.52106 -73.62191,-1e-4 -133.30382,-19.4852 -133.30297,-43.52106 0.002,-24.03516 59.68325,-43.51915 133.30297,-43.51926 z"
       style="display:inline;fill:#fff8ec;fill-opacity:1;stroke:#000000;stroke-width:0;stroke-linecap:round;stroke-linejoin:round;stroke-dasharray:none"
       id="path94"
       sodipodi:nodetypes="ccccccccccscscs"
       inkscape:label="cup_outer" /><path
       id="path1"
       style="fill:#fbfbfb;fill-opacity:0.666667;stroke:#000000;stroke-width:0;stroke-linecap:round;stroke-linejoin:round"
       inkscape:label="steam"
       d="M 226.2793 22.230469 C 244.21574 109.75983 184.6494 99.117882 233.73047 180.65234 C 226.52786 126.33596 288.46537 91.502688 226.2793 22.230469 z M 201.27344 49.667969 C 193.91007 98.667187 147.73686 102.25256 185.65625 158.89062 C 172.73421 88.630213 227.87472 121.13021 201.27344 49.667969 z M 271.90039 59.373047 C 281.6516 113.11445 239.94239 123.21738 289.76758 170.37109 C 273.86908 114.3372 331.9867 145.65456 271.90039 59.373047 z " /><path
       id="text13"
       style="display:inline;stroke-width:0;stroke-dasharray:none;font-weight:bold;font-size:127.912px;line-height:149.458px;font-family:'CMU Serif';-inkscape-font-specification:'CMU Serif Bold';letter-spacing:-1.57579px;word-spacing:0px;fill:#1d1511;stroke:#000000;stroke-opacity:0.804255"
       d="M 302.32944 248.09882 L 302.32944 254.09464 L 314.88276 254.09464 L 343.30054 293.37987 L 317.44402 327.29421 C 316.86109 328.0437 316.27654 328.56335 315.6936 328.85481 C 315.15231 329.10464 313.90356 329.31318 311.94658 329.47973 C 309.36502 329.72956 306.76404 329.85468 304.14084 329.85468 L 300.45479 329.85468 L 300.45479 335.85049 C 302.43965 335.71201 305.23054 335.62171 308.52027 335.55999 C 308.31274 336.71057 308.10669 337.81177 307.89916 338.75719 C 307.41194 340.9767 306.70086 343.32095 305.76703 345.79172 C 304.87381 348.22061 303.73698 350.19042 302.35654 351.69801 C 300.9761 353.2056 299.29123 354.62932 297.30178 355.9694 C 295.31232 357.2676 292.87561 358.20875 289.99293 358.79503 C 287.11025 359.33944 283.80167 359.61249 280.06636 359.61249 L 261.12569 359.61249 L 261.12569 323.30489 L 268.00766 323.30489 C 273.57003 323.30489 277.16394 324.47617 278.78799 326.8213 C 280.41203 329.12457 281.22277 332.97837 281.22277 338.38055 L 287.0703 338.38055 L 287.0703 302.19794 L 281.22277 302.19794 C 281.22277 307.60013 280.41203 311.47454 278.78799 313.81968 C 277.16394 316.12294 273.57003 317.27361 268.00766 317.27361 L 261.12569 317.27361 L 261.12569 284.23246 L 280.06636 284.23246 C 283.96407 284.23246 287.3338 284.61027 290.17588 285.36406 C 293.01796 286.11786 295.312 287.14315 297.05785 288.44135 C 298.8037 289.73955 300.24625 291.49816 301.38308 293.71767 C 302.56052 295.93717 303.41201 298.19896 303.93982 300.50222 C 304.50824 302.7636 304.99513 305.65227 305.40114 309.16997 L 311.24867 309.16997 L 307.4113 278.13869 L 244.58141 278.13869 L 242.08565 249.53444 L 156.02148 249.53444 L 153.336 280.32589 L 159.33034 280.32589 C 159.58017 276.74503 159.85197 273.99742 160.14344 272.08207 C 160.47654 270.16672 161.05884 267.98048 161.8916 265.52384 C 162.766 263.02556 163.8703 261.19382 165.20271 260.02796 C 166.57677 258.82045 168.5113 257.77946 171.00959 256.90507 C 173.54951 255.98903 176.60995 255.53025 180.19082 255.53025 L 190.06093 255.53025 L 190.06093 329.85468 L 170.44946 329.85468 L 170.44946 335.85049 C 175.07128 335.60066 184.62564 335.47554 199.11568 335.47554 C 213.60571 335.47554 223.16234 335.60066 227.78416 335.85049 L 227.78416 329.85468 L 208.23593 329.85468 L 208.23593 255.53025 L 217.91631 255.53025 C 221.49718 255.53025 224.51441 255.96818 226.97106 256.84258 C 229.46934 257.67534 231.40614 258.69547 232.78019 259.90297 C 234.15425 261.06884 235.27789 262.92143 236.15229 265.46135 C 237.06833 267.95963 237.65288 270.16672 237.90271 272.08207 C 238.08625 273.48924 238.31566 275.83255 238.54415 278.13869 L 229.94338 278.13869 L 229.94338 284.23246 L 243.40242 284.23246 L 243.40242 359.61249 L 229.94338 359.61249 L 229.94338 365.64208 L 309.48244 365.64208 L 314.42879 335.50425 C 315.5378 335.49828 316.35765 335.47554 317.56825 335.47554 C 327.43646 335.47554 333.91104 335.60066 336.99226 335.85049 L 336.99226 329.85468 C 332.16225 329.85468 328.2477 329.37505 325.24976 328.41737 C 325.33304 328.3341 325.50134 328.1064 325.75118 327.73165 C 326.001 327.35691 326.16705 327.12753 326.25033 327.04425 L 347.36151 299.00074 L 369.65847 329.85468 L 359.04076 329.85468 L 359.04076 335.85049 C 362.49672 335.60066 370.19844 335.47554 382.14856 335.47554 C 392.97444 335.47554 399.88687 335.60066 402.88481 335.85049 L 402.88481 329.85468 L 390.33148 329.85468 L 357.97922 285.07356 L 379.46307 256.78008 C 380.17092 255.86405 380.79642 255.30101 381.33772 255.09281 C 381.92064 254.84299 383.31383 254.63614 385.52065 254.46959 C 387.51927 254.21976 389.97582 254.09464 392.89048 254.09464 L 396.63977 254.09464 L 396.63977 248.09882 C 393.01726 248.34865 387.29103 248.47377 379.46307 248.47377 C 369.59487 248.47377 363.12028 248.34865 360.03907 248.09882 L 360.03907 254.09464 C 364.86907 254.09464 368.78362 254.57258 371.78156 255.53025 C 371.69828 255.61353 371.53223 255.84292 371.28241 256.21766 C 371.03258 256.5924 370.86427 256.82179 370.78099 256.90507 L 353.91825 279.32772 L 335.61902 254.09464 L 346.23673 254.09464 L 346.23673 248.09882 C 342.73913 248.34865 335.01581 248.47377 323.06569 248.47377 C 312.23981 248.47377 305.32738 248.34865 302.32944 248.09882 z "
       transform="matrix(0.86474815,0,0,1.1564061,-1.536476,-64.822916)"
       inkscape:label="TEX" /></g></svg>
