<?xml version="1.0" encoding="UTF-8" standalone="no"?>
<!-- Created with Inkscape (http://www.inkscape.org/) -->

<svg
   width="512"
   height="512"
   viewBox="0 0 512 512"
   version="1.1"
   id="svg1"
   xml:space="preserve"
   inkscape:export-filename="../Desktop/texpresso_logo_v3.png"
   inkscape:export-xdpi="96"
   inkscape:export-ydpi="96"
   inkscape:version="1.4.2 (ebf0e940d0, 2025-05-08)"
   sodipodi:docname="texpresso_logo_v2.svg"
   xmlns:inkscape="http://www.inkscape.org/namespaces/inkscape"
   xmlns:sodipodi="http://sodipodi.sourceforge.net/DTD/sodipodi-0.dtd"
   xmlns="http://www.w3.org/2000/svg"
   xmlns:svg="http://www.w3.org/2000/svg"><sodipodi:namedview
     id="namedview1"
     pagecolor="#505050"
     bordercolor="#eeeeee"
     borderopacity="1"
     inkscape:showpageshadow="0"
     inkscape:pageopacity="0"
     inkscape:pagecheckerboard="0"
     inkscape:deskcolor="#d1d1d1"
     inkscape:document-units="mm"
     showgrid="false"
     showguides="true"><inkscape:grid
       id="grid1"
       units="mm"
       originx="0"
       originy="0"
       spacingx="0.26458333"
       spacingy="0.26458334"
       empcolor="#0099e5"
       empopacity="0.30196078"
       color="#0099e5"
       opacity="0.14901961"
       empspacing="5"
       enabled="true"
       visible="false" /><inkscape:page
       x="0"
       y="0"
       width="512"
       height="512"
       id="page2"
       margin="0"
       bleed="0" /></sodipodi:namedview><defs
     id="defs1"><inkscape:path-effect
       effect="fillet_chamfer"
       id="path-effect41"
       is_visible="true"
       lpeversion="1"
       nodesatellites_param="F,0,1,1,0,36.469029,0,1 @ F,0,1,1,0,36.469029,0,1 @ F,0,0,1,0,36.469029,0,1 @ F,0,1,1,0,36.469029,0,1"
       radius="0"
       unit="px"
       method="auto"
       mode="F"
       chamfer_steps="1"
       flexible="false"
       use_knot_distance="true"
       apply_no_radius="true"
       apply_with_radius="true"
       only_selected="false"
       hide_knots="false" /></defs><path
     id="rect40"
     style="display:inline;fill:#377f7e;stroke:#fef9ec;stroke-width:5.03996;stroke-linecap:round;stroke-linejoin:round;stroke-dasharray:none;stroke-opacity:1"
     d="M 62.438698,41.306374 H 150.2162 a 36.469029,36.469029 45 0 1 36.46903,36.469029 V 167.319 A 36.469029,36.469029 135 0 1 150.2162,203.78803 H 62.438698 A 36.469029,36.469029 45 0 1 25.969669,167.319 V 77.775403 A 36.469029,36.469029 135 0 1 62.438698,41.306374 Z"
     inkscape:path-effect="#path-effect41"
     inkscape:original-d="M 25.969669,41.306374 H 186.68523 V 203.78803 H 25.969669 Z"
     transform="matrix(3.0853421,0,0,3.0600134,-72.056556,-118.99608)"
     sodipodi:nodetypes="ccccc"
     inkscape:label="background" /><g
     inkscape:groupmode="layer"
     id="g21"
     inkscape:label="texpresso"
     style="display:inline;stroke-width:0;stroke-dasharray:none"><path
       id="path125"
       style="display:inline;fill:#131313;fill-opacity:0.223529;stroke:#000000;stroke-linecap:round;stroke-linejoin:round"
       inkscape:label="shadow"
       d="m 352.80453,402.90524 a 118.6059,34.701122 0 0 1 -118.60591,34.70113 118.6059,34.701122 0 0 1 -118.6059,-34.70113 118.6059,34.701122 0 0 1 118.6059,-34.70112 118.6059,34.701122 0 0 1 118.60591,34.70112 z" /><path
       id="path94-9"
       style="display:inline;fill:#fff8ec;fill-opacity:1;stroke:#000000;stroke-width:0;stroke-linecap:round;stroke-linejoin:round;stroke-dasharray:none"
       inkscape:label="cup_outer"
       d="m 237.70304,98.415118 c -20.53663,0.007 -139.077458,2.189632 -150.275388,51.265632 -20.952311,84.16966 5.53349,185.84547 66.236328,248.74414 14.76801,12.16494 47.65212,20.01558 83.97851,20.04884 36.50373,-0.0302 69.52441,-7.94846 84.20118,-20.19923 18.59361,-19.24785 39.58197,-58.26418 47.37891,-57.95312 62.61396,-2.3492 107.70172,-67.35815 107.20505,-103.08204 -0.0624,-19.31096 -6.50415,-66.73503 -61.4824,-65.56445 -7.50853,-0.0428 -14.70913,2.00952 -21.75001,4.53515 -1.1771,-9.10928 -2.86129,-18.20036 -5.07617,-27.23828 C 375.88309,100.29756 256.07331,98.416758 237.70304,98.415118 Z M 410.68937,203.2452 c 43.14878,-0.93215 36.44791,100.1027 -25.94725,106.09571 -6.13062,-11.68797 0.13455,-21.91241 3.09176,-37.87501 2.95726,-15.96259 7.24237,-39.84935 7.43558,-60.14648 3.00548,-6.39778 8.85536,-7.85224 15.41991,-8.07422 z"
       sodipodi:nodetypes="cccccccccccsczcs" /><ellipse
       style="font-variation-settings:normal;opacity:1;vector-effect:none;fill:#dcc6b6;fill-opacity:1;stroke:#000000;stroke-width:0;stroke-linecap:round;stroke-linejoin:round;stroke-miterlimit:4;stroke-dasharray:none;stroke-dashoffset:0;stroke-opacity:1;-inkscape-stroke:none;stop-color:#000000;stop-opacity:1"
       id="path2"
       cx="238.69466"
       cy="151.25334"
       rx="133.30237"
       ry="43.515015" /><path
       id="text13"
       style="display:inline;stroke-width:0;stroke-dasharray:none;font-weight:bold;font-size:127.912px;line-height:149.458px;font-family:'CMU Serif';-inkscape-font-specification:'CMU Serif Bold';letter-spacing:-1.57579px;word-spacing:0px;fill:#1d1511;stroke:#000000;stroke-opacity:0.804255"
       d="M 302.32944 248.09882 L 302.32944 254.09464 L 314.88276 254.09464 L 343.30054 293.37987 L 317.44402 327.29421 C 316.86109 328.0437 316.27654 328.56335 315.6936 328.85481 C 315.15231 329.10464 313.90356 329.31318 311.94658 329.47973 C 309.36502 329.72956 306.76404 329.85468 304.14084 329.85468 L 300.45479 329.85468 L 300.45479 335.85049 C 302.43965 335.71201 305.23054 335.62171 308.52027 335.55999 C 308.31274 336.71057 308.10669 337.81177 307.89916 338.75719 C 307.41194 340.9767 306.70086 343.32095 305.76703 345.79172 C 304.87381 348.22061 303.73698 350.19042 302.35654 351.69801 C 300.9761 353.2056 299.29123 354.62932 297.30178 355.9694 C 295.31232 357.2676 292.87561 358.20875 289.99293 358.79503 C 287.11025 359.33944 283.80167 359.61249 280.06636 359.61249 L 261.12569 359.61249 L 261.12569 323.30489 L 268.00766 323.30489 C 273.57003 323.30489 277.16394 324.47617 278.78799 326.8213 C 280.41203 329.12457 281.22277 332.97837 281.22277 338.38055 L 287.0703 338.38055 L 287.0703 302.19794 L 281.22277 302.19794 C 281.22277 307.60013 280.41203 311.47454 278.78799 313.81968 C 277.16394 316.12294 273.57003 317.27361 268.00766 317.27361 L 261.12569 317.27361 L 261.12569 284.23246 L 280.06636 284.23246 C 283.96407 284.23246 287.3338 284.61027 290.17588 285.36406 C 293.01796 286.11786 295.312 287.14315 297.05785 288.44135 C 298.8037 289.73955 300.24625 291.49816 301.38308 293.71767 C 302.56052 295.93717 303.41201 298.19896 303.93982 300.50222 C 304.50824 302.7636 304.99513 305.65227 305.40114 309.16997 L 311.24867 309.16997 L 307.4113 278.13869 L 244.58141 278.13869 L 242.08565 249.53444 L 156.02148 249.53444 L 153.336 280.32589 L 159.33034 280.32589 C 159.58017 276.74503 159.85197 273.99742 160.14344 272.08207 C 160.47654 270.16672 161.05884 267.98048 161.8916 265.52384 C 162.766 263.02556 163.8703 261.19382 165.20271 260.02796 C 166.57677 258.82045 168.5113 257.77946 171.00959 256.90507 C 173.54951 255.98903 176.60995 255.53025 180.19082 255.53025 L 190.06093 255.53025 L 190.06093 329.85468 L 170.44946 329.85468 L 170.44946 335.85049 C 175.07128 335.60066 184.62564 335.47554 199.11568 335.47554 C 213.60571 335.47554 223.16234 335.60066 227.78416 335.85049 L 227.78416 329.85468 L 208.23593 329.85468 L 208.23593 255.53025 L 217.91631 255.53025 C 221.49718 255.53025 224.51441 255.96818 226.97106 256.84258 C 229.46934 257.67534 231.40614 258.69547 232.78019 259.90297 C 234.15425 261.06884 235.27789 262.92143 236.15229 265.46135 C 237.06833 267.95963 237.65288 270.16672 237.90271 272.08207 C 238.08625 273.48924 238.31566 275.83255 238.54415 278.13869 L 229.94338 278.13869 L 229.94338 284.23246 L 243.40242 284.23246 L 243.40242 359.61249 L 229.94338 359.61249 L 229.94338 365.64208 L 309.48244 365.64208 L 314.42879 335.50425 C 315.5378 335.49828 316.35765 335.47554 317.56825 335.47554 C 327.43646 335.47554 333.91104 335.60066 336.99226 335.85049 L 336.99226 329.85468 C 332.16225 329.85468 328.2477 329.37505 325.24976 328.41737 C 325.33304 328.3341 325.50134 328.1064 325.75118 327.73165 C 326.001 327.35691 326.16705 327.12753 326.25033 327.04425 L 347.36151 299.00074 L 369.65847 329.85468 L 359.04076 329.85468 L 359.04076 335.85049 C 362.49672 335.60066 370.19844 335.47554 382.14856 335.47554 C 392.97444 335.47554 399.88687 335.60066 402.88481 335.85049 L 402.88481 329.85468 L 390.33148 329.85468 L 357.97922 285.07356 L 379.46307 256.78008 C 380.17092 255.86405 380.79642 255.30101 381.33772 255.09281 C 381.92064 254.84299 383.31383 254.63614 385.52065 254.46959 C 387.51927 254.21976 389.97582 254.09464 392.89048 254.09464 L 396.63977 254.09464 L 396.63977 248.09882 C 393.01726 248.34865 387.29103 248.47377 379.46307 248.47377 C 369.59487 248.47377 363.12028 248.34865 360.03907 248.09882 L 360.03907 254.09464 C 364.86907 254.09464 368.78362 254.57258 371.78156 255.53025 C 371.69828 255.61353 371.53223 255.84292 371.28241 256.21766 C 371.03258 256.5924 370.86427 256.82179 370.78099 256.90507 L 353.91825 279.32772 L 335.61902 254.09464 L 346.23673 254.09464 L 346.23673 248.09882 C 342.73913 248.34865 335.01581 248.47377 323.06569 248.47377 C 312.23981 248.47377 305.32738 248.34865 302.32944 248.09882 z "
       transform="matrix(0.86474815,0,0,1.1564061,-1.536476,-64.822916)"
       inkscape:label="TEX" /><path
       id="path2-4"
       style="font-variation-settings:normal;display:inline;vector-effect:none;fill:#311d16;fill-opacity:1;stroke:#000000;stroke-width:0;stroke-linecap:round;stroke-linejoin:round;stroke-miterlimit:4;stroke-dasharray:none;stroke-dashoffset:0;stroke-opacity:1;-inkscape-stroke:none;stop-color:#000000;opacity:1;stop-opacity:1"
       d="m 238.95703,140.87305 c -55.08328,0.0285 -104.85484,10.52142 -124.52734,26.1289 A 133.30237,43.515015 0 0 0 238.69531,194.76758 133.30237,43.515015 0 0 0 363.1582,166.83594 C 343.41404,151.22563 294.03306,140.87698 238.95703,140.87305 Z" /><path
       id="path2-2-0"
       style="font-variation-settings:normal;display:inline;vector-effect:none;fill:#412519;fill-opacity:1;stroke:#000000;stroke-width:0;stroke-linecap:round;stroke-linejoin:round;stroke-miterlimit:4;stroke-dasharray:none;stroke-dashoffset:0;stroke-opacity:1;-inkscape-stroke:none;stop-color:#000000;opacity:1;stop-opacity:1"
       d="m 238.95703,160.0957 c -42.45936,0.0247 -82.32415,6.74764 -107.30664,17.08985 a 133.30237,43.515015 0 0 0 107.04492,17.58203 133.30237,43.515015 0 0 0 108.31446,-18.15039 C 321.94182,166.34096 281.30174,160.09902 238.95703,160.0957 Z" /><path
       id="path1"
       style="fill:#fbfbfb;fill-opacity:0.666667;stroke:#000000;stroke-width:0;stroke-linecap:round;stroke-linejoin:round"
       inkscape:label="steam"
       d="M 226.2793 22.230469 C 244.21574 109.75983 184.6494 99.117882 233.73047 180.65234 C 226.52786 126.33596 288.46537 91.502688 226.2793 22.230469 z M 201.27344 49.667969 C 193.91007 98.667187 147.73686 102.25256 185.65625 158.89062 C 172.73421 88.630213 227.87472 121.13021 201.27344 49.667969 z M 271.90039 59.373047 C 281.6516 113.11445 239.94239 123.21738 289.76758 170.37109 C 273.86908 114.3372 331.9867 145.65456 271.90039 59.373047 z " /></g></svg>
